# xmcd CD database file
#
# Track frame offsets:
#	150
#	17371
#	38642
#	62186
#	84319
#	104956
#	126638
#	155123
#	191142
#	223890
#
# Disc length: 3374 seconds
#
# Revision: 0
# Processed by: cddbd v1.5.2PL0 Copyright (c) Steve Scherf et al.
# Submitted via: CDex 1.51
#
DISCID=960d2c0a
DTITLE=Bob Holroyd - RE: Lax
DYEAR=2009
DGENRE=New Age
TTITLE0=Ek Jaan (BH Deep Blue Remix)
TTITLE1=Hollow Man (Remix)
TTITLE2=Butterfly (TJ Rehmi Remix)
TTITLE3=Light Water (A dimmSummer Remix)
TTITLE4=The Sheer Weight Of Memory (Ambient Mix)
TTITLE5=The Release (Coded Fantasy Remix)
TTITLE6=All Colours Pt 2 (Remix)
TTITLE7=Overland (Lemonade Remix)
TTITLE8=A New Space
TTITLE9=Plain Song
EXTD=YEAR: 2009
EXTT0=
EXTT1=
EXTT2=
EXTT3=
EXTT4=
EXTT5=
EXTT6=
EXTT7=
EXTT8=
EXTT9=
PLAYORDER=
